<svg xmlns="http://www.w3.org/2000/svg" width="322" height="75" viewBox="0 0 322 75">
  <path fill="#000306" stroke="#000306" stroke-width=".275" d="M322.92733,340 C324.031899,340 324.92733,340.895431 324.92733,342 L324.928075,384.126636 C324.975781,384.811812 325,385.505819 325,386.207926 C325,401.533433 313.460581,413 298,413 C282.427386,413 271,401.533433 271,386.207926 C271,370.882418 282.427386,359.415851 298,359.415851 C304.981278,359.415851 311.163029,361.75389 315.843826,365.729517 L315.843557,344.541886 C315.843557,342.033472 317.877029,340 320.385444,340 L322.92733,340 Z M437,359 L436.999615,397.730336 C436.992764,403.950583 436.896727,408.304323 436.889876,412.530824 L436.88949,413 L415.649055,413 C402.962262,413 396,407.06 396,397.725714 C396,391.477143 399.558488,386.925714 405.1283,385.074286 C400.564149,383.145714 397.779243,378.825714 397.779243,373.502857 C397.779243,364.962167 404.506785,359.135145 416.317996,359.002319 L416.732074,359 L437,359 Z M459.267926,359 C471.335851,359 478.220757,364.862857 478.220757,373.502857 C478.220757,378.825714 475.435851,383.145714 470.8717,385.074286 C476.441512,386.925714 480,391.477143 480,397.725714 C480,407.06 473.037738,413 460.350945,413 L439.11051,413 C439.11051,408.624262 439.00749,404.180962 439.000385,397.730336 L439,359 L459.267926,359 Z M355.810017,360 C370.691849,360 381.256813,368.727227 381.484017,385.845679 C381.490864,386.361539 381.461776,387.119474 381.396754,388.119483 C381.328352,389.17145 380.455158,389.989712 379.400969,389.989712 L339.110557,389.989712 C339.110557,396.633694 342.723978,404.27572 356.378026,404.27572 C364.088827,404.27572 371.625406,401.928339 378.987763,397.233577 L379.553745,396.867797 C380.246813,396.413964 381.17656,396.607903 381.630392,397.300972 C381.757029,397.494364 381.837254,397.714408 381.864806,397.943925 C382.131013,400.161529 382.004084,401.583221 381.484017,402.209 C380.452051,403.45073 370.901843,413 356.378026,413 C340.58738,413 329,401.876543 329,386.390947 C329,371.341564 340.019372,360 355.810017,360 Z M241,360 C256.460581,360 268,371.341564 268,386.5 C268,401.658436 256.460581,413 241,413 C225.427386,413 214,401.658436 214,386.5 C214,371.341564 225.427386,360 241,360 Z M187.324263,360 C201.609977,360 210,369.164905 210,381.780127 L210,407.5 C210,409.432997 208.432997,411 206.5,411 L202.249433,411 C201.144864,411 200.249433,410.104569 200.249433,409 L200.249433,382.534884 C200.249433,374.340381 195.827664,368.625793 186.303855,368.625793 C170.081633,368.625793 169.757188,375.77957 169.750699,384.683184 L169.750567,411 L162,411 C160.895431,411 160,410.104569 160,409 L160,375.293298 C160,364.393572 179.160998,360 187.324263,360 Z M426.092452,389.857143 L416.499999,389.857143 C410.156602,389.857143 406.984904,392.248571 406.984904,396.954286 C406.984904,401.8 409.81666,404.267725 415.407032,404.35746 L415.726414,404.36 L420.754716,404.36 C424.704219,404.36 426.043735,402.500921 426.09114,396.884474 L426.092452,396.568571 L426.092452,389.857143 Z M459.500001,389.857143 L449.907548,389.857143 L449.907548,396.568571 C449.907548,402.431429 451.222642,404.36 455.245284,404.36 L460.273586,404.36 C466.075473,404.36 469.015096,401.891429 469.015096,396.954286 C469.015096,392.248571 465.843398,389.857143 459.500001,389.857143 Z M241,368.72428 C230.804979,368.72428 223.634855,376.467078 223.634855,386.5 C223.634855,396.314815 230.804979,404.27572 241,404.27572 C251.195021,404.27572 258.365145,396.314815 258.365145,386.5 C258.365145,376.467078 251.195021,368.72428 241,368.72428 Z M298,368.236287 C287.804979,368.236287 280.634855,376.064424 280.634855,386.207926 C280.634855,396.130916 287.804979,404.179564 298,404.179564 C308.195021,404.179564 315.365145,396.130916 315.365145,386.207926 C315.365145,376.064424 308.195021,368.236287 298,368.236287 Z M355.810017,368.72428 C346.721876,368.72428 340.473779,373.958848 339.224159,381.8107 L371.259858,381.8107 C370.010238,373.958848 364.443752,368.72428 355.810017,368.72428 Z M426.169811,367.64 L417.350942,367.64 C411.703772,367.64 408.764149,370.185714 408.764149,374.505714 C408.764149,378.742637 411.591797,381.27286 417.02815,381.36861 L417.350942,381.371429 L426.169811,381.371429 L426.169811,367.64 Z M458.649058,367.64 L449.830189,367.64 L449.830189,381.371429 L458.649058,381.371429 C464.296228,381.371429 467.235851,378.825714 467.235851,374.505714 C467.235851,370.185714 464.296228,367.64 458.649058,367.64 Z" transform="translate(-159 -339)"/>
</svg>
