<svg xmlns="http://www.w3.org/2000/svg" width="152" height="98" viewBox="0 0 152 98">
  <path fill="#000306" d="M480,463 L479.999681,532.878532 C479.990831,544.807533 479.800544,552.966506 479.800544,561 L479.800544,561 L441.464149,561 C418.566034,561 406,550.22 406,533.28 C406,521.94 412.422637,513.68 422.475468,510.32 C414.237732,506.82 409.211316,498.98 409.211316,489.32 C409.211316,473.64 421.637732,463 443.418866,463 L443.418866,463 L480,463 Z M520.581134,463 C542.362268,463 554.788684,473.64 554.788684,489.32 C554.788684,498.98 549.762268,506.82 541.524532,510.32 C551.577363,513.68 558,521.94 558,533.28 C558,550.22 545.433966,561 522.535851,561 L484.199456,561 L484.199456,561 C484.199456,552.966506 484.009169,544.807533 484.000319,532.878532 L484,463 L520.581134,463 Z M460.313206,519 L442.999998,519 C431.55094,519 425.826412,523.34 425.826412,531.88 C425.826412,540.84 431.132072,545.32 441.603771,545.32 L441.603771,545.32 L450.679243,545.32 C457.939621,545.32 460.313206,541.82 460.313206,531.18 L460.313206,531.18 L460.313206,519 Z M521.000002,519 L503.686794,519 L503.686794,531.18 C503.686794,541.82 506.060379,545.32 513.320757,545.32 L522.396229,545.32 C532.867928,545.32 538.173588,540.84 538.173588,531.88 C538.173588,523.34 532.44906,519 521.000002,519 Z M460.452829,478.68 L444.535847,478.68 C434.343393,478.68 429.037733,483.3 429.037733,491.14 C429.037733,498.98 434.343393,503.6 444.535847,503.6 L444.535847,503.6 L460.452829,503.6 L460.452829,478.68 Z M519.464153,478.68 L503.547171,478.68 L503.547171,503.6 L519.464153,503.6 C529.656607,503.6 534.962267,498.98 534.962267,491.14 C534.962267,483.3 529.656607,478.68 519.464153,478.68 Z" transform="translate(-406 -463)"/>
</svg>
