<svg xmlns="http://www.w3.org/2000/svg" width="152" height="98" viewBox="0 0 152 98">
  <path fill="#FFF" d="M318,463 L317.999681,532.878532 C317.990831,544.807533 317.800544,552.966506 317.800544,561 L317.800544,561 L279.464149,561 C256.566034,561 244,550.22 244,533.28 C244,521.94 250.422637,513.68 260.475468,510.32 C252.237732,506.82 247.211316,498.98 247.211316,489.32 C247.211316,473.64 259.637732,463 281.418866,463 L281.418866,463 L318,463 Z M358.581134,463 C380.362268,463 392.788684,473.64 392.788684,489.32 C392.788684,498.98 387.762268,506.82 379.524532,510.32 C389.577363,513.68 396,521.94 396,533.28 C396,550.22 383.433966,561 360.535851,561 L322.199456,561 L322.199456,561 C322.199456,552.966506 322.009169,544.807533 322.000319,532.878532 L322,463 L358.581134,463 Z M298.313206,519 L280.999998,519 C269.55094,519 263.826412,523.34 263.826412,531.88 C263.826412,540.84 269.132072,545.32 279.603771,545.32 L279.603771,545.32 L288.679243,545.32 C295.939621,545.32 298.313206,541.82 298.313206,531.18 L298.313206,531.18 L298.313206,519 Z M359.000002,519 L341.686794,519 L341.686794,531.18 C341.686794,541.82 344.060379,545.32 351.320757,545.32 L360.396229,545.32 C370.867928,545.32 376.173588,540.84 376.173588,531.88 C376.173588,523.34 370.44906,519 359.000002,519 Z M298.452829,478.68 L282.535847,478.68 C272.343393,478.68 267.037733,483.3 267.037733,491.14 C267.037733,498.98 272.343393,503.6 282.535847,503.6 L282.535847,503.6 L298.452829,503.6 L298.452829,478.68 Z M357.464153,478.68 L341.547171,478.68 L341.547171,503.6 L357.464153,503.6 C367.656607,503.6 372.962267,498.98 372.962267,491.14 C372.962267,483.3 367.656607,478.68 357.464153,478.68 Z" transform="translate(-244 -463)"/>
</svg>
