<svg xmlns="http://www.w3.org/2000/svg" width="152" height="98" viewBox="0 0 152 98">
  <defs>
    <radialGradient id="bb-a" cx="65.599%" cy="0%" r="168.716%" fx="65.599%" fy="0%" gradientTransform="scale(-.64474 -1) rotate(-36.35 -.18 2.549)">
      <stop offset="0%" stop-color="#2A6CBE"/>
      <stop offset="38.688%" stop-color="#2062BC"/>
      <stop offset="49.182%" stop-color="#1F5FBC"/>
      <stop offset="66.583%" stop-color="#1C5ABD"/>
      <stop offset="85.354%" stop-color="#1956BC"/>
      <stop offset="100%" stop-color="#1851BE"/>
    </radialGradient>
  </defs>
  <path fill="url(#bb-a)" d="M156,463 L155.999681,532.878532 C155.990831,544.807533 155.800544,552.966506 155.800544,561 L155.800544,561 L117.464149,561 C94.566034,561 82,550.22 82,533.28 C82,521.94 88.4226374,513.68 98.4754682,510.32 C90.2377318,506.82 85.2113164,498.98 85.2113164,489.32 C85.2113164,473.64 97.6377323,463 119.418866,463 L119.418866,463 L156,463 Z M196.581134,463 C218.362268,463 230.788684,473.64 230.788684,489.32 C230.788684,498.98 225.762268,506.82 217.524532,510.32 C227.577363,513.68 234,521.94 234,533.28 C234,550.22 221.433966,561 198.535851,561 L160.199456,561 L160.199456,561 C160.199456,552.966506 160.009169,544.807533 160.000319,532.878532 L160,463 L196.581134,463 Z M136.313206,519 L118.999998,519 C107.55094,519 101.826412,523.34 101.826412,531.88 C101.826412,540.84 107.132072,545.32 117.603771,545.32 L117.603771,545.32 L126.679243,545.32 C133.939621,545.32 136.313206,541.82 136.313206,531.18 L136.313206,531.18 L136.313206,519 Z M197.000002,519 L179.686794,519 L179.686794,531.18 C179.686794,541.82 182.060379,545.32 189.320757,545.32 L198.396229,545.32 C208.867928,545.32 214.173588,540.84 214.173588,531.88 C214.173588,523.34 208.44906,519 197.000002,519 Z M136.452829,478.68 L120.535847,478.68 C110.343393,478.68 105.037733,483.3 105.037733,491.14 C105.037733,498.98 110.343393,503.6 120.535847,503.6 L120.535847,503.6 L136.452829,503.6 L136.452829,478.68 Z M195.464153,478.68 L179.547171,478.68 L179.547171,503.6 L195.464153,503.6 C205.656607,503.6 210.962267,498.98 210.962267,491.14 C210.962267,483.3 205.656607,478.68 195.464153,478.68 Z" transform="translate(-82 -463)"/>
</svg>
